<svg xmlns="http://www.w3.org/2000/svg" viewBox="0 0 441.18807 77.94644"><defs><style>.cls-1,.cls-2{fill:#272223;}.cls-2,.cls-3,.cls-4,.cls-5,.cls-6{fill-rule:evenodd;}.cls-3{fill:#ef3a0a;}.cls-4{fill:#fff;}.cls-5{fill:#ecc700;}.cls-6{fill:#007eca;}</style></defs><g id="Capa_2" data-name="Capa 2"><g id="Diseño"><path class="cls-1" d="M287.911,47.45552a5.29722,5.29722,0,0,1,1.17964-2.85451,24.612,24.612,0,0,1,1.59864-1.9792l-.07614-.07615q-.57074.57085-1.14153,1.08485-.57145.51362-1.37045,1.1991l-.22819.19008-.2286-.22815.26663-.2286q1.67418-1.4844,2.81647-2.55017,1.33249-1.2939,3.6158-3.69206,2.05592-2.16954,4.11078-4.33934a49.69964,49.69964,0,0,1,5.25263-4.71978q2.96941-2.24556,4.796-2.24535,1.06595,0,1.06578,1.17961,0,2.01774-4.28212,5.34787a38.65921,38.65921,0,0,1-9.57247,5.42406q-4.2252,4.71987-5.74745,6.699a5.23605,5.23605,0,0,0-1.29439,2.32162q0,.68567.91342.6853a4.906,4.906,0,0,0,2.07441-1.04681,43.4901,43.4901,0,0,0,3.55919-2.83537l.26622-.2286.19049.26667-.22852.19008a42.00481,42.00481,0,0,1-4.45315,3.42584,3.28967,3.28967,0,0,1-1.713.53289q-1.37024,0-1.37012-1.5229m8.25951-9.211.07622.07615a27.37566,27.37566,0,0,0,4.60544-2.35973,41.5851,41.5851,0,0,0,5.63328-4.035q2.77836-2.43589,2.77868-3.882,0-.72324-.79948-.72338a6.21312,6.21312,0,0,0-3.23547,1.63672,46.20071,46.20071,0,0,0-4.3007,4.07266Q298.75839,35.27553,296.17055,38.24456Zm-12.63684,2.96869q-1.56057,0-4.47229,2.79774-2.91152,2.79791-2.91192,3.93975,0,.723.91374.723a4.367,4.367,0,0,0,2.1315-.85633,20.02372,20.02372,0,0,0,2.89262-2.34111q2.43608-2.32169,2.43591-3.42544Q284.52327,41.21339,283.53371,41.21325Zm2.51246-.07575h1.941q-1.63667,1.64567-3.15917,3.36827-2.70261,3.05462-2.70246,3.78735a.33643.33643,0,0,0,.38049.3806,5.51968,5.51968,0,0,0,1.9033-1.18013q1.17968-.91294,3.23507-2.664l.26663-.26667.1904.26667-.22843.19008q-3.31171,2.77872-4.12984,3.36867a2.52118,2.52118,0,0,1-1.31328.59006q-1.06559,0-1.06579-1.02768a3.00739,3.00739,0,0,1,.17135-.99,4.36257,4.36257,0,0,1,.43765-.91334q-3.273,2.93052-5.06215,2.93106a1.38346,1.38346,0,0,1-1.18012-.45715,2.19668,2.19668,0,0,1-.34237-1.332q0-2.24563,2.96868-4.33934a9.05954,9.05954,0,0,1,5.02452-1.941,1.35753,1.35753,0,0,1,1.16059.39954,2.14474,2.14474,0,0,1,.28576,1.23717Zm-23.67511,3.88219-.2286-.22815.26663-.2286q4.377-3.53954,6.889-5.61414a41.91082,41.91082,0,0,0,3.654-3.29252h1.75109l-7.70125,8.47536.10791.10791a33.28654,33.28654,0,0,1,2.84816-2.14416,5.897,5.897,0,0,1,2.9247-1.18644c1.059,0,1.59189.46937,1.59189,1.40816q0,1.2945-2.34055,3.33071-2.34079,2.03595-2.34112,2.56915,0,.45645.79948.45675,1.256,0,5.74754-3.88218l.26622-.2286.19049.26667-.2286.19008a46.1532,46.1532,0,0,1-4.09164,3.19728,4.02755,4.02755,0,0,1-2.0363.76145,1.9949,1.9949,0,0,1-1.18-.3238,1.23683,1.23683,0,0,1-.45663-1.08488q0-1.3319,2.341-3.29212,2.34091-1.96045,2.34072-2.49341a.50466.50466,0,0,0-.571-.571q-1.48422,0-4.45315,2.36009a79.30959,79.30959,0,0,0-5.89974,5.40508q-1.6368,1.63618-5.59517,5.70938l-3.045,3.08294h-2.20764L269.8692,39.08211l-.0509-.05716c-1.55426,1.21779-2.72747,2.13784-3.51432,2.77205-1.32575,1.05943-2.55653,2.07432-3.70473,3.03261ZM260.62,41.4418q-1.48434,0-4.32015,2.68353-2.83554,2.68308-2.83586,3.74927,0,.79927.95185.79912,1.44624,0,4.07267-2.16973,2.85447-2.35985,2.85451-4.263Q261.343,41.44222,260.62,41.4418Zm-.19048-.53285q1.21841,0,1.21816,1.2943a3.88121,3.88121,0,0,1-.2856,1.38918,4.93571,4.93571,0,0,1-.97059,1.5034.91869.91869,0,0,0,.60916.38045,2.40716,2.40716,0,0,0,1.14185-.64667l.26623-.26667.19056.26667-.2286.26622a5.61736,5.61736,0,0,1-.83719.58359,1.37058,1.37058,0,0,1-.571.10172,1.77041,1.77041,0,0,1-.9135-.30486,14.7859,14.7859,0,0,1-2.85483,2.37918,5.58447,5.58447,0,0,1-2.81648,1.123,1.49745,1.49745,0,0,1-1.67479-1.713q0-2.35984,2.85451-4.45355A8.49732,8.49732,0,0,1,260.42948,40.909Zm-6.52112,3.654.2031.26667-.19048.19008a30.3201,30.3201,0,0,1-4.11062,3.04487,5.68073,5.68073,0,0,1-2.69619.91386q-1.98849,0-1.98555-1.8272,0-2.09323,2.70254-4.168a8.233,8.233,0,0,1,4.71978-2.07432q1.37011,0,1.37,1.10382a1.77282,1.77282,0,0,1-.5138,1.23717,1.45716,1.45716,0,0,1-1.04681.55155.62355.62355,0,0,1-.55183-.24713,1.00966,1.00966,0,0,1-.17134-.59006.90991.90991,0,0,1,.22851-.60912.80659.80659,0,0,1,.64711-.26627.99959.99959,0,0,1,.571.13332,2.79709,2.79709,0,0,0,.34253.20922q.19032,0,.19032-.34254a.87346.87346,0,0,0-.3808-.76132.75534.75534,0,0,0-.45679-.11434q-1.10346,0-3.88218,2.74069-2.779,2.7408-2.77861,3.95873c0,.50745.39311.76105,1.17369.76105q1.89321,0,6.32469-3.88218Zm-15.18034.45675-.22224-.22815.26663-.2286,6.47047-5.74745.15245.45675-.57113.53285q-.64695.57072-.64711.95145.15245.72324.28576,1.48442a7.86507,7.86507,0,0,1,.13291,1.33238,5.37154,5.37154,0,0,1-.53285,2.43583,2.69976,2.69976,0,0,0,1.06571-.45659,8.588,8.588,0,0,0,.95185-.761l.26622-.2286.19049.26667-.22852.19008a17.75094,17.75094,0,0,1-1.44627,1.08472,2.39882,2.39882,0,0,1-1.06571.43777,6.875,6.875,0,0,1-2.265,1.789,6.08561,6.08561,0,0,1-2.7212.64723,3.14877,3.14877,0,0,1-1.4847-.3047,1.17507,1.17507,0,0,1-.571-1.14205,1.04283,1.04283,0,0,1,.2856-.70388.83148.83148,0,0,1,.62814-.3238q.7994,0,.79916.95153,0,.76177-.79916.76145a.52489.52489,0,0,1-.38081-.11434l-.0759.11434a1.33566,1.33566,0,0,0,1.14161.45675,3.76227,3.76227,0,0,0,2.32206-1.04681,7.72925,7.72925,0,0,0,1.86486-2.15063,8.17785,8.17785,0,0,0,.85657-2.28339,11.669,11.669,0,0,0,.24725-2.39828l-4.69437,4.02221Zm2.2903-7.3461-1.33241,1.25611-1.02768-1.25611,1.2943-1.33213ZM235.9938,41.1375h1.94142l-3.08343,3.53966q-1.71229,1.97908-2.16921,2.58828a1.855,1.855,0,0,0-.45711,1.02768q0,.3804.49523.3806a4.14028,4.14028,0,0,0,1.86486-.79912,34.50491,34.50491,0,0,0,3.92022-3.08306l.26663-.2286.19048.26667-.22851.19008q-4.68171,3.95847-6.01368,3.95873-1.2564,0-1.25627-1.06575,0-1.56075,3.92021-5.70942V42.127q-1.39858,1.37017-3.03848,2.70262l-.23454.19008-.22852-.22815.26663-.2286Zm-18.07971,3.88219-.22851-.22815.26662-.2286q4.37692-3.53954,6.88907-5.61414a41.93649,41.93649,0,0,0,3.654-3.29252h1.75109l-7.70125,8.47536.10791.10791a33.2756,33.2756,0,0,1,2.84815-2.14416,5.89655,5.89655,0,0,1,2.92471-1.18644c1.059,0,1.59188.46937,1.59188,1.40816q0,1.2945-2.34071,3.33071-2.34079,2.03595-2.34095,2.56915,0,.45645.79948.45675,1.25578,0,5.74753-3.88218l.26623-.2286.19048.26667-.22859.19008a46.15137,46.15137,0,0,1-4.09165,3.19728,4.02853,4.02853,0,0,1-2.03637.76145,1.99479,1.99479,0,0,1-1.18-.3238,1.23691,1.23691,0,0,1-.45679-1.08488q0-1.3319,2.341-3.29212,2.3408-1.96045,2.34071-2.49341a.50463.50463,0,0,0-.571-.571q-1.48448,0-4.45315,2.36009a79.30762,79.30762,0,0,0-5.89991,5.40508q-1.63667,1.63618-5.595,5.70938l-3.045,3.08294h-2.2078l18.15585-18.68863-.05073-.05716c-1.55426,1.21779-2.72763,2.13784-3.51433,2.77205-1.32574,1.05943-2.55652,2.07432-3.70488,3.03261Zm7.33982-22.87563q-3.20676,0-7.46035,3.25445-4.2539,3.2544-4.90391,6.33751a36.42664,36.42664,0,0,0,5.45574-1.37061,27.6776,27.6776,0,0,0,6.33756-2.81627q3.05444-1.94153,3.05126-3.92066a1.17517,1.17517,0,0,0-.72334-1.142A4.09664,4.09664,0,0,0,225.25391,22.14406Zm-9.39517,13.05551q.49462,0,.49482-.3806,0-.57128-1.00862-.79941a8.57582,8.57582,0,0,0-1.8844-.22815A4.86978,4.86978,0,0,0,214.56444,34.8,2.32,2.32,0,0,0,215.85874,35.19957ZM214.2601,20.65963V20.964h-1.63675a14.6905,14.6905,0,0,0-7.581,2.13161q-3.60636,2.13124-3.60961,4.75786a3.58227,3.58227,0,0,0,2.01732,3.19728,10.49714,10.49714,0,0,0,5.32877,1.18012,17.78307,17.78307,0,0,0,3.23548-.34293V30.82216q0-3.69186,4.96059-6.62272a16.3773,16.3773,0,0,1,8.33574-2.58828,4.2737,4.2737,0,0,1,2.10609.47573,1.63737,1.63737,0,0,1,.85037,1.54159q0,2.47407-4.56748,5.00538a33.98734,33.98734,0,0,1-10.81,3.597,2.14632,2.14632,0,0,0,.34278,1.10382,9.54939,9.54939,0,0,1,2.13149.19012q1.52258.34266,1.5225,1.25611,0,.98979-1.14194.98961a2.78831,2.78831,0,0,1-1.9033-.91334,9.1753,9.1753,0,0,1-.91349-1.06575,13.69028,13.69028,0,0,0-9.3253,3.97731q-3.99665,3.63474-3.99644,6.66091a3.3893,3.3893,0,0,0,1.54147,2.94368,6.38883,6.38883,0,0,0,3.74927,1.07222,16.82435,16.82435,0,0,0,7.30806-1.78913q4.52925-2.16952,4.52938-5.29074a2.10712,2.10712,0,0,0-.81862-1.67491,3.42245,3.42245,0,0,0-2.26441-.68478,11.97256,11.97256,0,0,0-6.39472,2.24535,25.01494,25.01494,0,0,0-5.17641,4.606l-.15237-.26663a22.9,22.9,0,0,1,5.29067-4.75785A12.01078,12.01078,0,0,1,213.613,38.473a4.39512,4.39512,0,0,1,2.60726.74211A2.63021,2.63021,0,0,1,217.267,41.518q0,2.89258-4.14881,5.25267a16.51927,16.51927,0,0,1-8.22148,2.2078,7.19906,7.19906,0,0,1-4.5297-1.40868,4.91477,4.91477,0,0,1-1.9792-4.11062q0-4.56748,5.10034-7.57429a17.75766,17.75766,0,0,1,9.13522-2.55017,3.75344,3.75344,0,0,1-.49474-.95193,19.565,19.565,0,0,1-3.464.381,11.09329,11.09329,0,0,1-5.59517-1.2182,4.49806,4.49806,0,0,1-2.39772-4.11074q0-2.89259,3.36839-4.834a17.27992,17.27992,0,0,1,8.69749-1.94117ZM187.1214,41.21325q-1.56045,0-4.47221,2.79774-2.91152,2.79791-2.91192,3.93975,0,.723.91374.723a4.36736,4.36736,0,0,0,2.1315-.85633,20.03315,20.03315,0,0,0,2.8927-2.34111q2.43584-2.32169,2.43583-3.42544Q188.111,41.21339,187.1214,41.21325Zm2.51254-.07575h1.941q-1.6368,1.64567-3.15917,3.36827-2.70275,3.05462-2.70254,3.78735a.33649.33649,0,0,0,.38048.3806,5.51882,5.51882,0,0,0,1.90338-1.18013q1.17969-.91294,3.23508-2.664l.26663-.26667.19048.26667-.22852.19008q-3.3117,2.77872-4.12991,3.36867a2.52067,2.52067,0,0,1-1.31328.59006q-1.06547,0-1.06579-1.02768a3.01167,3.01167,0,0,1,.17143-.99,4.36208,4.36208,0,0,1,.43765-.91334q-3.273,2.93052-5.06215,2.93106a1.38326,1.38326,0,0,1-1.18012-.45715,2.19613,2.19613,0,0,1-.34237-1.332q0-2.24563,2.96868-4.33934a9.06,9.06,0,0,1,5.02452-1.941,1.3583,1.3583,0,0,1,1.16075.39954,2.14611,2.14611,0,0,1,.2856,1.23717Zm-7.1938-3.46391-1.33242,1.25611-1.02767-1.25611,1.2943-1.33213Zm-5.02452,3.46391H179.357l-3.08327,3.53966q-1.71254,1.97908-2.16936,2.58828a1.85476,1.85476,0,0,0-.457,1.02768q0,.3804.49506.3806a4.13947,4.13947,0,0,0,1.865-.79912,34.49737,34.49737,0,0,0,3.92038-3.08306l.26662-.2286.19033.26667-.22852.19008q-4.68171,3.95847-6.01376,3.95873-1.25626,0-1.25619-1.06575,0-1.56075,3.92038-5.70942V42.127q-1.39884,1.37017-3.03864,2.70262l-.23455.19008-.22851-.22815.26663-.2286Zm-3.85678,3.42544.20319.26667-.19048.19008a30.33036,30.33036,0,0,1-4.11078,3.04487,5.68082,5.68082,0,0,1-2.69611.91386q-1.98861,0-1.98556-1.8272,0-2.09323,2.70254-4.168a8.23306,8.23306,0,0,1,4.71978-2.07432q1.37,0,1.37013,1.10382a1.77287,1.77287,0,0,1-.5138,1.23717,1.45759,1.45759,0,0,1-1.04681.55155.62373.62373,0,0,1-.552-.24713,1.01075,1.01075,0,0,1-.17135-.59006.91032.91032,0,0,1,.22852-.60912.80693.80693,0,0,1,.64727-.26627.99993.99993,0,0,1,.571.13332,2.79642,2.79642,0,0,0,.34237.20922q.19046,0,.19049-.34254a.87321.87321,0,0,0-.381-.76132.755.755,0,0,0-.45663-.11434q-1.10358,0-3.88218,2.74069-2.779,2.7408-2.77877,3.95873c0,.50745.39327.76105,1.1737.76105q1.89345,0,6.32485-3.88218ZM150.924,48.74986l3.88258-3.95832q1.40824-1.40878,1.75069-1.78917.87539-.98977.87563-1.332,0-.45711-.34278-.45715a3.74392,3.74392,0,0,0-1.61729.81862q-1.16122.81826-3.483,2.79774l-.22819.19008-.22844-.22815.26663-.2286a41.542,41.542,0,0,1,3.52076-2.8168,4.00064,4.00064,0,0,1,1.76958-.83719q1.10406,0,1.1039,1.06575a2.61863,2.61863,0,0,1-.34245,1.161,10.18213,10.18213,0,0,1-.91341,1.42721q1.94085-1.63674,2.89254-2.28391A6.03991,6.03991,0,0,1,162.8,40.909a1.5717,1.5717,0,0,1,1.02767.34237,1.12133,1.12133,0,0,1,.41852.91386q0,1.294-2.30292,3.33023-2.30268,2.03675-2.30252,2.60722,0,.57146.53293.57109.68482,0,3.23491-1.97925.95173-.723,2.32206-1.90293l.26623-.2286.19048.26667-.2286.19008q-2.35972,1.97945-3.4635,2.7786a5.1707,5.1707,0,0,1-2.32158,1.18013,1.03283,1.03283,0,0,1-.76145-.3047,1.07962,1.07962,0,0,1-.30434-.79912,4.507,4.507,0,0,1,1.4273-2.98823q1.42705-1.54151,2.94955-3.1779,0-.49522-.609-.49522-1.6368,0-5.36665,3.34969-1.40873,1.294-2.81664,2.58828a9.25168,9.25168,0,0,0-.761.68515q-.381.3804-.87579.91349Zm-.34238-7.53661q-.91312,0-4.94789,3.54021v.07615a12.1164,12.1164,0,0,0,3.59047-1.06579c1.288-.63445,1.92839-1.2943,1.92839-1.97961A.50463.50463,0,0,0,150.58165,41.21325Zm1.21816,3.34969.1904.26667-.22859.19008a27.13244,27.13244,0,0,1-4.07251,2.96873,6.42494,6.42494,0,0,1-3.045.99,1.49267,1.49267,0,0,1-1.1991-.51392,1.95579,1.95579,0,0,1-.43765-1.31328q0-2.05512,2.75971-4.14885a8.45487,8.45487,0,0,1,4.81457-2.09342,1.07772,1.07772,0,0,1,.62814.17139.75944.75944,0,0,1,.24757.6658q0,1.028-1.40856,1.94141a13.70609,13.70609,0,0,1-4.83371,1.63684,4.30186,4.30186,0,0,0-.95145,1.10346,2.58829,2.58829,0,0,0-.49523,1.37044q0,.87563.91374.87543a6.44164,6.44164,0,0,0,2.93082-.996,24.20584,24.20584,0,0,0,3.92054-2.84815Zm-16.10042.45675-.2286-.22815.26663-.2286q.34229-.30466,1.37012-1.2939.72318-.72384,1.48439-1.44675a1.64437,1.64437,0,0,1-.45671-1.06575q0-.98923.87538-.98952.79929,0,.79949.83759a.69983.69983,0,0,1-.34286.60864,1.34073,1.34073,0,0,1-.761.22855,1.667,1.667,0,0,0,1.1039.38049,3.28725,3.28725,0,0,0,.79916-.09512,2.944,2.944,0,0,0,.72325-.28537l1.02768,1.10386-1.10382,1.18009q-1.40813,1.48422-2.58829,2.74017a6.343,6.343,0,0,0-1.37,1.75105q0,.45645.72293.45675a5.5262,5.5262,0,0,0,2.36009-1.104,32.97827,32.97827,0,0,0,3.57793-2.7782l.26622-.2286.19033.26667-.22852.19008a37.04262,37.04262,0,0,1-3.9773,3.04487,4.88064,4.88064,0,0,1-2.30309.91386q-1.37,0-1.37-1.142a2.97627,2.97627,0,0,1,.425-1.5034,11.29941,11.29941,0,0,1,1.6304-1.99859l2.20764-2.28354v-.03807a2.21774,2.21774,0,0,0-.34237.05717,3.14188,3.14188,0,0,1-.64711.057l-.76145-.11422q-.26607.22861-2.05535,1.86487-.83739.7614-1.06579.952Zm-1.18013-3.80644q-.9129,0-4.948,3.54021v.07615a12.1164,12.1164,0,0,0,3.59055-1.06579c1.288-.63445,1.92847-1.2943,1.92847-1.97961A.50466.50466,0,0,0,134.51926,41.21325Zm1.21816,3.34969.19048.26667-.22851.19008a27.14135,27.14135,0,0,1-4.07267,2.96873,6.42494,6.42494,0,0,1-3.045.99,1.49265,1.49265,0,0,1-1.1991-.51392,1.95615,1.95615,0,0,1-.43766-1.31328q0-2.05512,2.75963-4.14885a8.45551,8.45551,0,0,1,4.81466-2.09342,1.07774,1.07774,0,0,1,.62814.17139.75946.75946,0,0,1,.24765.6658q0,1.028-1.40864,1.94141a13.70558,13.70558,0,0,1-4.83364,1.63684,4.30367,4.30367,0,0,0-.95153,1.10346,2.58835,2.58835,0,0,0-.49522,1.37044q0,.87563.9139.87543a6.44107,6.44107,0,0,0,2.93065-.996,24.20568,24.20568,0,0,0,3.92062-2.84815ZM123.272,44.47405l4.08561-4.32655v-.07574c-.97091.60863-1.69376,1.06574-2.16961,1.36373q-1.06595.68512-2.13149,1.44623v.717A1.86318,1.86318,0,0,0,123.272,44.47405ZM120.316,47.646l2.62631-2.81008a2.42151,2.42151,0,0,1-.22819-.92021q-.57146.91374-1.142,1.82723-.723,1.14158-1.2561,1.8268Zm10.201-9.40144h.07574a44.63473,44.63473,0,0,0,9.93438-5.86183q3.083-2.58786,3.083-4.45315,0-.60878-.64679-.609a6.14548,6.14548,0,0,0-3.08294,1.59864A48.68324,48.68324,0,0,0,135.503,32.9537Q133.25733,35.23744,130.517,38.24456Zm-.45711.64707-5.82971,6.50219a1.06417,1.06417,0,0,0,.552.34912,2.40772,2.40772,0,0,0,.78018.152,2.701,2.701,0,0,0,1.10382-.27257,5.20035,5.20035,0,0,0,1.22451-.78646l.26623-.273.19032.273-.22843.19008a4.12153,4.12153,0,0,1-2.62,1.17365,2.751,2.751,0,0,1-1.5606-.48847l-10.816,12.05956-2.3157.00644L115.86263,52.48a46.30922,46.30922,0,0,0,3.65408-4.263q1.14156-1.551,3.00687-4.67539v-.08246L120.779,44.82961l-.23463.19008-.22843-.22815.26662-.2286,2.1315-1.82679a10.32107,10.32107,0,0,1,.91333-1.78913q.647-.98984,1.1421-.98964.41828,0,.41851.34253a1.58754,1.58754,0,0,1-.30474.87567v.07574l3.15925-2.01728a121.02011,121.02011,0,0,1,10.73386-10.01052q2.85459-2.20746,4.26315-2.20728.87478,0,.8753.98949,0,2.20768-3.92069,5.17652A55.34933,55.34933,0,0,1,130.05984,38.89163Zm-24.54415,9.85823,3.88259-3.95832q1.40811-1.40878,1.75069-1.78917.87539-.98977.87562-1.332,0-.45711-.34277-.45715a3.74263,3.74263,0,0,0-1.61729.81862q-1.16124.81826-3.48305,2.79774l-.22819.19008-.22852-.22815.26663-.2286a41.58285,41.58285,0,0,1,3.52067-2.8168,4.00175,4.00175,0,0,1,1.76975-.83719q1.10406,0,1.10382,1.06575a2.62062,2.62062,0,0,1-.34237,1.161,10.18336,10.18336,0,0,1-.9135,1.42721q1.941-1.63674,2.89262-2.28391a6.04021,6.04021,0,0,1,2.96909-1.37008,1.57113,1.57113,0,0,1,1.02768.34237,1.12123,1.12123,0,0,1,.41867.91386q0,1.294-2.30292,3.33023-2.30268,2.03675-2.3026,2.60722,0,.57146.53286.57109.68506,0,3.23507-1.97925.95173-.723,2.32206-1.90293l.26622-.2286.19049.26667-.2286.19008q-2.36,1.97945-3.46367,2.7786a5.16911,5.16911,0,0,1-2.32157,1.18013,1.03246,1.03246,0,0,1-.76129-.3047,1.07973,1.07973,0,0,1-.3045-.79912,4.5077,4.5077,0,0,1,1.42729-2.98823q1.42729-1.54151,2.94971-3.1779,0-.49522-.609-.49522-1.6368,0-5.36665,3.34969-1.40873,1.294-2.8168,2.58828a9.30432,9.30432,0,0,0-.761.68515q-.38076.3804-.87562.91349Zm-.91334-7.30806q-1.48434,0-4.32015,2.68353-2.83554,2.68308-2.83594,3.74927,0,.79927.95193.79912,1.44624,0,4.07251-2.16973,2.85471-2.35985,2.85451-4.263Q105.32521,41.44222,104.60235,41.4418Zm-.19048-.53285q1.21829,0,1.21808,1.2943a3.87949,3.87949,0,0,1-.2856,1.38918,4.93989,4.93989,0,0,1-.97051,1.5034.91877.91877,0,0,0,.609.38045,2.40694,2.40694,0,0,0,1.14193-.64667l.26623-.26667.19048.26667-.2286.26622a5.60883,5.60883,0,0,1-.83719.58359,1.36958,1.36958,0,0,1-.571.10172,1.77017,1.77017,0,0,1-.91342-.30486,14.77926,14.77926,0,0,1-2.85491,2.37918,5.584,5.584,0,0,1-2.81632,1.123,1.49745,1.49745,0,0,1-1.67487-1.713q0-2.35984,2.85443-4.45355A8.49775,8.49775,0,0,1,104.41187,40.909ZM82.90628,46.16158l-.26622-.11422a19.89646,19.89646,0,0,1,5.06231-5.44275,11.58355,11.58355,0,0,1,6.85127-2.62631,2.87746,2.87746,0,0,1,1.903.6658,2.189,2.189,0,0,1,.79948,1.77q0,3.23541-4.75781,6.05179a15.54461,15.54461,0,0,1-7.72658,2.5125,5.61284,5.61284,0,0,1-3.57824-1.02768A4.20467,4.20467,0,0,1,79.709,44.4486a9.19859,9.19859,0,0,1,1.40856-4.3011,33.38873,33.38873,0,0,1,2.8927-4.14881l-1.18012.07614a8.57165,8.57165,0,0,1-4.83355-1.332,4.89341,4.89341,0,0,1-2.36009-4.3011q0-3.3117,3.27342-5.78557,4.33881-3.27352,12.78889-3.27354v.3047q-7.46007,0-11.83736,3.42547-3.464,2.70286-3.46367,5.70938a4.00793,4.00793,0,0,0,2.2074,3.616,8.79569,8.79569,0,0,0,4.49167,1.10382l1.37-.11382A57.53583,57.53583,0,0,1,94.82,26.14046q6.50893-4.52933,10.81-4.5293a3.19746,3.19746,0,0,1,1.99834.571,2.06955,2.06955,0,0,1,.74191,1.751q0,2.89259-5.97565,6.43223a44.29315,44.29315,0,0,1-15.41552,5.367,49.92865,49.92865,0,0,0-4.45315,5.44316q-1.82736,2.664-1.82724,4.03447a2.77831,2.77831,0,0,0,1.161,2.39788,5.05548,5.05548,0,0,0,3.02594.8376q2.96941,0,7.1942-2.47443,4.6436-2.7402,4.64348-5.40456a1.88658,1.88658,0,0,0-.64711-1.48443,2.3274,2.3274,0,0,0-1.59864-.57092,11.19188,11.19188,0,0,0-6.737,2.55A21.63808,21.63808,0,0,0,82.90628,46.16158Zm24.93107-22.457a1.30509,1.30509,0,0,0-.62774-1.14189,3.09636,3.09636,0,0,0-1.73195-.41867q-2.47431,0-6.31842,2.43583a48.961,48.961,0,0,0-6.699,5.29086A66.23456,66.23456,0,0,0,87.43574,34.971l.07614.07615a45.609,45.609,0,0,0,14.73038-5.21456Q107.83759,26.52164,107.83735,23.70462Z"/><path class="cls-1" d="M436.62018,41.21325q-1.56045,0-4.472,2.79774-2.91175,2.79791-2.912,3.93975,0,.723.91374.723a4.36783,4.36783,0,0,0,2.13157-.85633,20.02349,20.02349,0,0,0,2.89254-2.34111q2.43608-2.32169,2.43584-3.42544,0-.83745-.98965-.83759m2.51254-.07575h1.941q-1.63644,1.64567-3.15917,3.36827-2.70263,3.05462-2.70246,3.78735a.33654.33654,0,0,0,.38064.3806,5.52267,5.52267,0,0,0,1.90338-1.18013q1.17957-.91294,3.23491-2.664l.26663-.26667.1904.26667-.22851.19008q-3.31146,2.77872-4.12968,3.36867a2.52172,2.52172,0,0,1-1.31352.59006q-1.06522,0-1.0657-1.02768a3.01192,3.01192,0,0,1,.17142-.99,4.36233,4.36233,0,0,1,.43774-.91334q-3.27287,2.93052-5.06223,2.93106a1.38311,1.38311,0,0,1-1.18-.45715,2.19616,2.19616,0,0,1-.34253-1.332q0-2.24563,2.96893-4.33934a9.05867,9.05867,0,0,1,5.02444-1.941,1.35783,1.35783,0,0,1,1.16058.39954,2.14414,2.14414,0,0,1,.28561,1.23717Zm-7.1938-3.46391-1.33233,1.25611-1.02776-1.25611,1.29438-1.33213Zm-5.02444,3.46391h1.9415l-3.08343,3.53966q-1.71242,1.97908-2.16937,2.58828a1.85548,1.85548,0,0,0-.45687,1.02768q0,.3804.49515.3806a4.13974,4.13974,0,0,0,1.86478-.79912,34.48908,34.48908,0,0,0,3.9203-3.08306l.26663-.2286.1904.26667-.22835.19008q-4.68183,3.95847-6.01376,3.95873-1.25652,0-1.25627-1.06575,0-1.56075,3.92029-5.70942V42.127q-1.39882,1.37017-3.03872,2.70262l-.23446.19008-.22852-.22815.26663-.2286Zm6.12842-12.94165a.768.768,0,0,0-.15245-.49483.83783.83783,0,0,0-.72285-.38044,4.87882,4.87882,0,0,0-2.77869,1.218,35.21825,35.21825,0,0,0-3.99652,3.76837q-1.485,1.56051-5.74745,6.47042h.0759q2.398-1.21785,4.83387-2.474a28.05524,28.05524,0,0,0,4.56757-3.08307,18.33778,18.33778,0,0,0,2.39821-2.28382A4.98892,4.98892,0,0,0,433.0429,28.19585ZM410.74459,45.01969l-.235-.22815.26663-.2286q1.44635-1.21785,3.12121-2.55017,2.09331-1.67472,2.55017-1.941a29.38088,29.38088,0,0,0,2.96877-2.85491q2.01708-2.09325,3.045-3.19729a40.0433,40.0433,0,0,1,5.67123-5.06226q2.66451-1.94153,4.035-1.94106a1.28718,1.28718,0,0,1,.81821.28525.94008.94008,0,0,1,.36135.78054q0,2.54969-4.68159,6.01368a45.36059,45.36059,0,0,1-9.55357,5.32882q-2.66451,2.85459-4.7197,5.44275-1.78911,2.24618-1.7892,2.8168a1.22253,1.22253,0,0,0,.19056.72337.69677.69677,0,0,0,.609.26627,5.26006,5.26006,0,0,0,2.39772-.8944,25.5753,25.5753,0,0,0,3.31162-2.37919,4.91434,4.91434,0,0,1,1.10382-2.81639q1.10358-1.52241,1.94117-1.5225.41827,0,.4186.53285a2.84583,2.84583,0,0,1-.83719,1.63688,22.24516,22.24516,0,0,1-2.322,2.28354,1.35722,1.35722,0,0,0,.28528.55183.64867.64867,0,0,0,.51412.24769,2.03113,2.03113,0,0,0,1.00878-.32384,12.58048,12.58048,0,0,0,1.5795-1.19865l.26631-.2286.1904.26667-.22851.19008a11.15268,11.15268,0,0,1-1.69384,1.218,2.55454,2.55454,0,0,1-1.18616.3806.90236.90236,0,0,1-.61527-.28536,1.53831,1.53831,0,0,1-.425-.59q-3.78762,3.23542-5.71561,3.23548a1.37421,1.37421,0,0,1-1.17377-.49482,1.87823,1.87823,0,0,1-.38049-1.18009,4.42568,4.42568,0,0,1,.60868-2.26485,30.12371,30.12371,0,0,1,2.85491-3.63493v-.07614c-.95153.736-1.62405,1.25615-2.011,1.56056q-1.16124.98967-2.322,1.94146Zm.03168-.45675.19008.19052-.228.1964q-1.18052.9993-2.32213,2.01084-2.398,2.0178-3.34925,2.01772-1.37061,0-1.37045-1.29434,0-1.48441,2.13141-3.38737,2.13214-1.90333,2.13158-2.43623,0-.64695-.53294-.64723-.9135,0-3.61571,2.09346a73.83664,73.83664,0,0,0-6.12183,5.44315l-2.0933.00632,3.85661-3.83173a15.8108,15.8108,0,0,0,1.6686-1.81417,2.35064,2.35064,0,0,0,.59645-1.24349c0-.43761-.19056-.65354-.571-.65354q-.83727,0-3.654,2.1696-2.81648,2.17014-6.28039,5.367h-2.09346l4.41544-4.26307a7.1103,7.1103,0,0,0,1.40824-1.78872,2.38711,2.38711,0,0,0,.34237-.9896q0-.49522-.30426-.49522a3.58112,3.58112,0,0,0-1.35115.79952q-1.0469.79933-3.44493,2.81684l-.2282.19008-.22835-.22815.26646-.2286q2.16954-1.86517,3.00688-2.5121a4.65175,4.65175,0,0,1,2.05551-1.14189q.98973,0,.98949,1.25623a3.07673,3.07673,0,0,1-.4186,1.37008,7.1195,7.1195,0,0,1-.87563,1.332v.07614c1.053-.78633,2.09974-1.58585,3.1529-2.39776q2.30268-1.63678,3.30519-1.63671a1.24029,1.24029,0,0,1,.96407.34237,1.32384,1.32384,0,0,1,.30474.91386,2.67977,2.67977,0,0,1-.39351,1.1796c-.25987.48216-.49482.92653-.71031,1.33238v.0763q2.43608-2.0178,3.5017-2.74069A5.23469,5.23469,0,0,1,407.541,40.909a1.04536,1.04536,0,0,1,.89428.38044,1.67456,1.67456,0,0,1,.28561,1.02772q0,1.25633-2.13158,3.27354-2.13117,2.017-2.13141,2.58825,0,.49461.57088.49482a5.37512,5.37512,0,0,0,2.28355-1.26865q1.33273-.99932,3.19728-2.65161ZM388.20505,41.4418q-1.48422,0-4.32008,2.68353-2.83553,2.68308-2.83593,3.74927,0,.79927.95185.79912,1.44634,0,4.07275-2.16973,2.85435-2.35985,2.85443-4.263Q388.92807,41.44222,388.20505,41.4418Zm-.1904-.53285q1.21815,0,1.21816,1.2943a3.87821,3.87821,0,0,1-.28577,1.38918,4.9353,4.9353,0,0,1-.9705,1.5034.91877.91877,0,0,0,.609.38045,2.40756,2.40756,0,0,0,1.1421-.64667l.2663-.26667.19025.26667-.22836.26622a5.61589,5.61589,0,0,1-.83735.58359,1.36945,1.36945,0,0,1-.57089.10172,1.77033,1.77033,0,0,1-.91341-.30486,14.78389,14.78389,0,0,1-2.85492,2.37918,5.58445,5.58445,0,0,1-2.81647,1.123,1.49747,1.49747,0,0,1-1.67487-1.713q0-2.35984,2.85459-4.45355A8.49731,8.49731,0,0,1,388.01465,40.909Zm-14.08287,6.54657A5.29745,5.29745,0,0,1,375.1115,44.601a24.59429,24.59429,0,0,1,1.59865-1.9792l-.07623-.07615q-.57072.57085-1.14145,1.08485-.57146.51362-1.37045,1.1991l-.22819.19008-.22868-.22815.26663-.2286q1.67454-1.4844,2.81648-2.55017,1.33249-1.2939,3.616-3.69206,2.05566-2.16954,4.11054-4.33934a49.68161,49.68161,0,0,1,5.25279-4.71978q2.96916-2.24556,4.79592-2.24535,1.06594,0,1.06571,1.17961,0,2.01774-4.28213,5.34787a38.6587,38.6587,0,0,1-9.57239,5.42406q-4.22518,4.71987-5.74745,6.699a5.23523,5.23523,0,0,0-1.29438,2.32162q0,.68567.91326.6853a4.90484,4.90484,0,0,0,2.07448-1.04681,43.47242,43.47242,0,0,0,3.55927-2.83537l.26615-.2286.19056.26667-.22851.19008a42.00429,42.00429,0,0,1-4.45323,3.42584,3.28948,3.28948,0,0,1-1.713.53289Q373.932,48.97842,373.93178,47.45552Zm8.25967-9.211.07607.07615A27.37967,27.37967,0,0,0,386.8732,35.961a41.582,41.582,0,0,0,5.63311-4.035q2.77814-2.43589,2.77869-3.882,0-.72324-.79956-.72338A6.21325,6.21325,0,0,0,391.25,28.9573,46.22115,46.22115,0,0,0,386.94926,33.03Q384.77926,35.27553,382.19145,38.24456ZM372.14274,41.4418q-1.48446,0-4.32024,2.68353-2.83542,2.68308-2.83577,3.74927,0,.79927.95177.79912,1.44635,0,4.07266-2.16973,2.85459-2.35985,2.85459-4.263Q372.86575,41.44222,372.14274,41.4418Zm-.19057-.53285q1.2184,0,1.21816,1.2943a3.88121,3.88121,0,0,1-.2856,1.38918,4.93515,4.93515,0,0,1-.97051,1.5034.91871.91871,0,0,0,.60916.38045,2.407,2.407,0,0,0,1.14177-.64667l.26631-.26667.19056.26667-.22867.26622a5.61736,5.61736,0,0,1-.83719.58359,1.3708,1.3708,0,0,1-.571.10172,1.77085,1.77085,0,0,1-.91342-.30486,14.78768,14.78768,0,0,1-2.85475,2.37918,5.58473,5.58473,0,0,1-2.81648,1.123,1.49742,1.49742,0,0,1-1.67478-1.713q0-2.35984,2.85451-4.45355A8.49689,8.49689,0,0,1,371.95217,40.909Zm-21.50534,5.25263-.26631-.11422a19.89372,19.89372,0,0,1,5.06223-5.44275,11.5836,11.5836,0,0,1,6.85143-2.62631,2.87739,2.87739,0,0,1,1.9029.6658,2.18884,2.18884,0,0,1,.79956,1.77q0,3.23541-4.75789,6.05179a15.5448,15.5448,0,0,1-7.72665,2.5125,5.61285,5.61285,0,0,1-3.57825-1.02768,4.205,4.205,0,0,1-1.4843-3.50214,9.19834,9.19834,0,0,1,1.40848-4.3011,33.38476,33.38476,0,0,1,2.89262-4.14881l-1.18.07614a8.57247,8.57247,0,0,1-4.83379-1.332,4.8937,4.8937,0,0,1-2.36-4.3011q0-3.3117,3.27351-5.78557,4.33881-3.27352,12.78888-3.27354v.3047q-7.46007,0-11.83743,3.42547-3.46392,2.70286-3.46359,5.70938a4.00757,4.00757,0,0,0,2.20748,3.616,8.79535,8.79535,0,0,0,4.49158,1.10382l1.37-.11382a57.53577,57.53577,0,0,1,10.353-9.28766q6.50869-4.52933,10.80992-4.5293a3.19737,3.19737,0,0,1,1.99826.571,2.06947,2.06947,0,0,1,.74215,1.751q0,2.89259-5.97564,6.43223a44.2948,44.2948,0,0,1-15.41561,5.367,49.93212,49.93212,0,0,0-4.45331,5.44316q-1.827,2.664-1.82707,4.03447A2.77825,2.77825,0,0,0,349.4,47.60793a5.05552,5.05552,0,0,0,3.026.8376q2.96929,0,7.194-2.47443,4.6436-2.7402,4.64363-5.40456a1.88664,1.88664,0,0,0-.64719-1.48443,2.32754,2.32754,0,0,0-1.59864-.57092,11.19209,11.19209,0,0,0-6.7371,2.55A21.63721,21.63721,0,0,0,350.44683,46.16158Zm24.931-22.457a1.30535,1.30535,0,0,0-.62781-1.14189,3.09624,3.09624,0,0,0-1.732-.41867q-2.47419,0-6.3185,2.43583a48.97042,48.97042,0,0,0-6.69882,5.29086A66.23973,66.23973,0,0,0,354.976,34.971l.07631.07615a45.60932,45.60932,0,0,0,14.7303-5.21456Q375.378,26.52164,375.37781,23.70462ZM334.00395,41.21325q-.91314,0-4.948,3.54021v.07615a12.1164,12.1164,0,0,0,3.59055-1.06579c1.288-.63445,1.92839-1.2943,1.92839-1.97961A.50467.50467,0,0,0,334.00395,41.21325Zm1.218,3.34969.19056.26667-.22859.19008a27.13715,27.13715,0,0,1-4.07259,2.96873,6.42441,6.42441,0,0,1-3.045.99,1.49248,1.49248,0,0,1-1.199-.51392,1.95533,1.95533,0,0,1-.43766-1.31328q0-2.05512,2.75963-4.14885a8.45488,8.45488,0,0,1,4.81466-2.09342,1.07811,1.07811,0,0,1,.62814.17139.75942.75942,0,0,1,.24749.6658q0,1.028-1.40856,1.94141a13.70549,13.70549,0,0,1-4.83372,1.63684,4.30044,4.30044,0,0,0-.95137,1.10346,2.58835,2.58835,0,0,0-.49522,1.37044q0,.87563.91374.87543a6.44078,6.44078,0,0,0,2.93065-.996,24.19873,24.19873,0,0,0,3.92062-2.84815Zm.60916-14.65411h1.97952L321.86218,46.77062q-1.02773,1.14157-1.02768,1.5225,0,.3804.72334.3806a5.62612,5.62612,0,0,0,2.47394-1.20553q1.40836-.97955,3.34966-2.63858l.2663-.26667.19048.26667-.22859.19008a40.22946,40.22946,0,0,1-4.45315,3.42584,3.54178,3.54178,0,0,1-1.78913.53289,1.18018,1.18018,0,0,1-.83719-.22856.87472.87472,0,0,1-.22859-.64723,6.81886,6.81886,0,0,1,.30474-1.82683v-.07615a21.13505,21.13505,0,0,1-2.90557,2.11256,4.29757,4.29757,0,0,1-2.02367.66621,1.40214,1.40214,0,0,1-1.19275-.45715,2.15272,2.15272,0,0,1-.34872-1.332q0-2.28375,2.83577-4.28217a9.26252,9.26252,0,0,1,5.19555-1.99818q1.40823,0,1.40823,1.161l-.03176.71654.019.08893ZM322.28085,41.21325q-1.56057,0-4.47228,2.79774-2.91153,2.79791-2.91192,3.93975,0,.723.91374.723a4.331,4.331,0,0,0,2.11259-.83735,22.49716,22.49716,0,0,0,2.91152-2.28379,12.00342,12.00342,0,0,0,1.884-2.05539,2.71581,2.71581,0,0,0,.55191-1.3702Q323.27041,41.21343,322.28085,41.21325Z"/><path class="cls-2" d="M19.927,58.81743a13.99681,13.99681,0,0,0,17.25037-.08383,4.89064,4.89064,0,0,0,1.88736.07845c.10854.66873,1.36341,1.07305,2.3462-.0669q2.048,1.30311,4.09622,2.60672c-.05243,1.19653-1.008.487-1.7875.14892a1.62378,1.62378,0,0,0-1.86184,1.04261,1.10332,1.10332,0,0,0-.37233,1.56411c.38513-.40946.20292-.98859,1.415-.37236,1.08886-.60248,1.83706-.14882,2.75564-.22343.1743-.1,1.09109-1.554,1.71319-.67026.54125.52166,1.01432.02136,1.26613-.22344.50274-.35863.3926,1.19056,1.71295.96831.66992,1.12461.84331.73581,1.19182.81916.43466-.17276.0518,1.08544,1.69588.947.1002.1106.505.34667.00175,1.45438.35613.19332,1.27107-.38649,1.22442-1.81745-.04346-1.335-.67279-2.789-3.36043-2.41825-1.148-.63411-1.1557-.93209-1.34916-1.44269,2.036-.082,2.86084-.61068,3.44438-1.64454a.99363.99363,0,0,1,1.32646-.24728c.3958-1.295-.94622-.9548-1.41924-.93836-1.89589-.7904-2.49723.94033-2.97927,1.56389a1.39572,1.39572,0,0,1-1.39382.49367c.34439-1.46764.883-3.32592-.0212-3.17479.0842-1.89182.69645-1.19472.96815-1.63865-.53122-1.641-1.84589.0054-2.30882.59571-.67075,1.24923-.14909,2.53245-.22348,3.79858-2.151-.21374-3.43338-1.53479-4.76682-2.53221.79132-.69289-.87008-2.629.07455-3.20275.62074.49663,1.25846,1.75958,1.86208,1.48973.79631.2271.68952-.261.44692-.596-1.69515-2.04343-1.70422-4.37674-1.71319-6.18186.36685.09329,1.73861,2.99688,4.31994,2.68134a.29829.29829,0,0,0-.13376-.40524c-2.116-.988-2.62057-4.13661-2.62658-4.93559,1.39988,2.54554,2.78915,5.2593,4.92026,4.67049a11.73861,11.73861,0,0,1-4.11343-7.00984c3.98709,7.2592,7.58483,8.571,9.43552,7.34614a21.28592,21.28592,0,0,1-4.97119-6.333c3.72393,1.72265,4.24471-.90029,4.34137-.92978.0228-.39445-.421-.32977-.596-.21223-.33615.22574-2.97194.77507-4.96037-1.87761,4.12158,1.88149,6.21631.22775,6.301.22775.64029-.54741.35337-.7084.08153-.75615-1.43078-.25031-2.1284.11259-3.7652-1.65044,3.81312-.17925,3.92617-.9656,3.90711-1.68974-2.30343.70547-5.06669.49123-5.71789-1.01742,3.4778,1.50707,6.76814-.52865,6.68623-1.44048.71687-.43267-4.61307-.18428-4.54348-1.04269,4.92114-.634,4.54348-3.12817,4.54348-3.12817-.11407-.31131-.23522-.26492-.39265-.08177-1.59335,1.85448-4.36209,1.80132-5.90461,1.6799,4.38643-1.1715,6.59252-2.66647,6.66949-5.69468-1.14192.49671-2.07965,1.5893-3.42595,1.48983,2.97326-2.27324,3.32333-4.15473,2.5322-4.46891a8.37126,8.37126,0,0,1-5.57748,4.00484c5.55818-2.94641,5.97242-6.21672,5.87551-8.7715.03357-.33628-.22256-.85992-.81944-.44688-.36418.8008-1.79094,2.52726-2.98994,2.78312,2.80884-3.184,3.08616-6.40792,2.09638-7.3265,0,0-.26374-.01828-.29507.141A10.18809,10.18809,0,0,1,51.91242,19.941c1.22738-4.24586,2.693-12.47767-.96829-13.55525-.05407,2.8061.14705,7.65636-2.30876,11.8423,2.74618-7.327.757-13.35929-1.26613-12.88513a1.11988,1.11988,0,0,0-.03.70544c.805,3.289,1.59136,6.58482.31083,10.03487.03448-8.299-3.02229-13.05878-6.76072-15.87934,0,0-.90437-.76561-1.19153.67034,1.97654,3.51133,6.66275,11.19691,2.08532,18.99225-.59707-1.91527-2.01093-2.01079-2.01093-2.01079-.44983.947.19866,2.33355.298,3.50052-2.72052,3.84967-.46152,6.19808,2.38327,5.28809A24.16022,24.16022,0,0,1,40.5171,28.953q-12.10313-.03717-24.206-.07452A7.97634,7.97634,0,0,1,14.449,26.56976c.8904.32118,3.14785,1.05905,3.2771-2.6068.25249-1.16469-1.28344-2.69662-.8935-4.31994-.01581-.35948.25671-.79762.241-1.15734-.00907-.21122.00786-.60615-.31563-.55568-.32791.037-1.28339.09893-1.7875,1.93648C12.99372,17.482,11.7001,9.70272,16.68341,1.09769c0,0,.31-1.65941-1.11723-.8938-2.734,2.57772-5.993,4.45494-6.47957,14.67248-.24531.33739-1.43908-4.0569.25385-9.8486-2.37968.60883-3.7476,4.93217-1.37108,12.52994C5.758,14.46643,6.023,8.2999,5.735,6.16231c-2.47866.37323-3.25485,7.03259-.52152,13.92761-.57927.46913-1.98488-3.08406-2.681-5.5859-.972,1.40845-.55207,4.51079,2.27268,7.30314C3.34758,21.15867,2.309,19.59345,1.19178,18.526c-1.89585,5.6811,3.91565,8.82309,6.2039,9.84092-.50993.31219-4.03166-.65882-6.42734-3.88274-.911,1.9101,2.24838,3.78167,2.7942,4.342C1.70917,28.5447,1.16675,27.63718,0,27.01665c.27679,4.47987,5.657,5.49191,6.33073,5.66037C6.294,32.668,4.49968,33.836.67036,31.26205c-.10951,2.48443,3.13355,2.95255,4.54313,3.05362-.16009-.01256-.42888.71047-4.61772.89377,1.26,3.11561,5.53174,2.01443,7.00133,1.48959.37092-.1543-.75078,2.12743-5.9584,1.266.50924,2.04185,3.26784,1.61617,3.90823,1.56253a5.22827,5.22827,0,0,1-4.13172,1.64025c1.415,2.53221,5.901.79088,6.7114.5091-1.63457,2.11479-3.6618,1.97718-5.29643,2.02311-.09845,1.68331,2.80928,1.69411,4.07265.73207-.38538,2.45337-4.19676,6.01357-4.81726,6.49247,2.76437,1.80394,7.95745-3.185,9.77312-7.77053-.974,5.34711-3.18316,5.97462-4.33619,7.39818.06393.60231,2.36935.505,4.90179-4.48528a8.26416,8.26416,0,0,1-2.74191,5.30453c2.28078.23377,3.35679-1.75849,4.328-3.044.06174,3.67376-1.4481,4.80678-2.09363,7.066.92261.73455,1.75195-.77078,2.53221-1.48949.55415.83719-.002,2.46234-.22339,2.90446-.0744.32276.32252.33135.24793.65413-1.29086.69512-2.51615,1.881-4.69771,2.41889.1584-2.4572.01514-4.20058-1.13614-4.56254-.73089-1.05166-1.54044-.21754-1.56411.22347,1.79506.15066.6627,1.48114.67036,1.78756-.29507.99174.69354,2.9.37233,3.05362-1.89317-.06913-1.63841-1.29086-2.4579-1.93648-.87144-.9649-1.69084-.6205-2.45781-.22344-1.11253-.35693-1.20351,1.14582-.74471.89377,1.2024-.32252,1.33073-.01644,1.56411.4469.0777,1.35959,2.35562,1.06883,2.90478,1.56413a1.36269,1.36269,0,0,1-1.78755,1.11721c-3.3048.28988-2.81175,1.968-2.60674,2.75566-.2233.33945-.36807,1.46454.74466,1.48949-.0178-2.01815.64552-.89369.96829-1.34059.63563.14613.69514-.54606,1.04269-.81925.68806-.16956.695-.49647,1.04264-.74462,1.33611-.34757,1.13993-.70372,1.41521-1.04293,1.2283.47779,1.06.439,2.08528,0,.39741.29806.873.09821,1.19187.89377.91849.07455,1.91563-.29616,2.75564.22344.4221.09933,1.11942-.63178,1.26628.298.39692.34018,1.26544-1.04824-.22344-1.41519a1.50187,1.50187,0,0,0-2.4579-.81918c-.92106.34733-1.26584.01375-1.19178-.37235a37.90521,37.90521,0,0,1,4.39429-2.68134c1.44519,1.20215,1.742.41581,2.60709.14889.36956.28814,1.3316-.002,1.75369-.002"/><path class="cls-3" d="M15.14482,29.62362l26.41492-.07476q.07472,10.39009.14889,20.78C35.99845,67.99818,16.9069,61.22752,15.045,49.9563Z"/><path class="cls-2" d="M26.03022,61.43817c-.04981,4.0224-3.88955,2.859-3.34107.84777-.73138-.81471-3.14965,4.49139,2.59307,3.54041-1.18009,2.0443-3.21.38046-5.03628-.14979-4.90358-1.72852-4.72074,4.272-2.14435,3.341-1.76868-1.74353,1.72876-1.61227,2.89216-.99732q1.37139.424,2.7426.84777c-1.37967,1.81189-4.50453,2.07769-6.38282,1.69547-3.81724-.46358-4.90834-4.00938-2.34364-4.58761-2.12495-1.76-4.35583-.36959-3.54041,2.19416-4.28216-2.99736-7.17316,1.9677-3.34088,5.38533.205.08965.29982.03768.28566-.15018-1.7371-5.314,3.93835-2.82684,6.25817-1.859a13.93492,13.93492,0,0,0,5.82284.76254c-.90815,1.619-7.18417-.75713-9.77384,5.585a.77632.77632,0,0,0,.74805-.09957,7.12119,7.12119,0,0,1,7.33035-3.14175c8.59332.83116,7.63337-2.64775,9.77-4.297a6.39909,6.39909,0,0,0,5.48877,4.39683c2.66713-.15653,5.61808-.51538,8.42707.19953,1.29658.47367,2.06122,1.99456,3.09174,2.992.26694-.03878.35114.05538.53383-.07748-1.87649-5.56111-8.10522-4.80632-8.91114-5.35793.10093-.00492-.1356-.14661-.03671-.14954a14.33573,14.33573,0,0,0,6.15613-1.29785c4.58669-2.07633,5.86339-.04236,4.95068,2.24518.09331-.02749.298.096.298.096A3.76769,3.76769,0,0,0,50.06542,68.519c-1.417-2.268-4.16139-1.07424-4.488-.89758-.282-3.14558-2.24858-2.87534-4.03908-1.845l.12474.24936c2.70772,1.03585.897,3.61971-1.54315,4.30738a7.76989,7.76989,0,0,1-6.90918-1.51478c2.5597-.29934,4.0578-1.87426,5.58495-1.34657,1.15763.66161-.0664,1.03054-.09972,1.54585.87959.87265,2.23684-.70792,2.04454-1.79518-.75169-2.62-3.367-2.07745-5.96135-.962-1.43238.616-1.72692.67525-2.96472-.03521.10573-.00039.06222-.189.16087-.1795,4.87589.464,3.7217-3.744,2.18286-3.95932.38494,3.29844-4.12158,2.05058-2.992-.64825h-5.136"/><path class="cls-2" d="M23.44486,28.87064,24.77467,26.859a2.09783,2.09783,0,0,1-1.5967-.52351c1.17374,0,1.26152-.355,1.52128-.93407a7.52066,7.52066,0,0,0-.08017-2.375,8.0241,8.0241,0,0,0,1.38772.18675c.00247-2.05378.0953-2.64933-2.0475-3.70531.16577-.45769,1.745-.7548,2.68788-.13737.3-.5212-1.29158-.90459-2.75137-.23561-1.13843.61623-2.55679,1.256-3.19965.55568-.07023-.07549-.20089-.40272-.016-.38453,1.53981.15139,3.49555-1.42489,4.73937-1.10974.27479-.94625-2.7926-1.29341-3.57577.40024-.92779-.13-.52665-1.7348-.37369-2.05472a2.374,2.374,0,0,1,3.04218-1.46789c1.27379-1.76188,3.7442-1.44834,5.682-1.25009.28562.02924,1.44694-.94511,1.42332-1.5862-.00995-.26668.68631.72017.36331,1.74607.91183-.21533,1.137-1.38929,1.28188-1.46334.46764.61557-.09442,1.78637-.111,1.99837a2.19989,2.19989,0,0,0,.98071-.49695c.0387-.02631.01954-.01327.05878-.03808.07071.39375-.27252.88839-.90849,1.48372a1.513,1.513,0,0,1,.88841.73676c-.18173.37347-.30545.30115-.6965.49464a1.58824,1.58824,0,0,1,.535,1.17088c-.03719.31284-.25588.57522-.47442.54486l.15137.38356.01916,2.4525c-.23518-.07389-.37956-.249-.55406-.19175-.01019.97921.65586.95886,1.05976,1.393.07382.20515-.821.26912-.80756.52484a5.00137,5.00137,0,0,0,.65619,1.64517,5.12115,5.12115,0,0,0,.41375,1.46344c-.26238-.0167-.58539-.39691-.71672-.29267.15476.55838.90505,1.80331,1.403,3.15909.49784,1.35575.19977.57258.19977.57258l-12.4889-.10679Z"/><path class="cls-4" d="M27.75607,15.85485a2.47328,2.47328,0,0,1-1.30754-.75686c.83671-.11555,1.36671.52937,1.30754.75686"/><path class="cls-4" d="M31.57148,14.86175a4.46851,4.46851,0,0,0,.73724-.25705.5925.5925,0,0,1-.73724.25705"/><path class="cls-4" d="M32.55175,15.4744c.02769-.00136.04146-.02639.06911-.02772a.97548.97548,0,0,0,.294.32776c-.0113.009.04457.06889.02949.07859-.01329.00859-.09748-.03291-.10767-.02478a.82071.82071,0,0,1-.28493-.35385"/><path class="cls-4" d="M30.19792,14.35066c.24012.04011.36375-.07294.59824-.17459a3.1564,3.1564,0,0,0-.59824.17459"/><path class="cls-4" d="M26.09691,17.51035a1.69327,1.69327,0,0,1,1.30483,1.38056c-.01213.00995-.06237-.03351-.08556-.068a5.81734,5.81734,0,0,0-1.21927-1.31254"/><path class="cls-4" d="M24.17236,16.579c.3037-.04911.64155.15185,1.07557.49282-.80859-.25205-1.149-.20469-1.07557-.49282"/><path class="cls-4" d="M29.17507,17.97554a.26267.26267,0,0,1,.20811.14889,1.03946,1.03946,0,0,1,.16378.487,4.22277,4.22277,0,0,1-.37189-.63585"/><path class="cls-4" d="M28.42774,18.23593a.981.981,0,0,0,.42753.29369c-.126-.11936-.21806-.3-.42753-.29369"/><path class="cls-4" d="M30.44527,22.76134c.13153-.32866.12634-.42617.25676-.75528.00945-.0237.07047-.21869.16169-.12571.8226.839,1.16544.87463.98144,1.74163a2.74938,2.74938,0,0,0-.96989-1.44382c-.11737.36331-.24468.6624-.362,1.02578-.36094.00381-.151-.23585-.068-.4426"/><path class="cls-4" d="M27.2754,25.3919c.05048-.44729.06707-.987.15112-1.34193.14259-.26556.19279-.674.42777-.79692v-.369c-.2199.11419-1.12471,1.74768-.57889,2.50781"/><path class="cls-4" d="M30.94913,23.17756c.362.06555.48242,1.07463-.10049,1.60194-.05049-.26556.57035-.69895.10049-1.60194"/><path class="cls-4" d="M25.302,27.10628a2.86083,2.86083,0,0,1,.65188,1.72384q.01455-.37677.029-.75329c-.12023-.84889-.54417-1.02458-.68089-.97055"/><path class="cls-4" d="M26.60572,27.32361a4.63674,4.63674,0,0,1,1.0375-1.06963A3.83123,3.83123,0,0,0,29.503,24.2815c.03808.17545-.3714.63428.60843,2.086-.62351-.09011-.76789-1.15164-1.02848-.92709-.929,1.13322-1.08973.48473-2.37589,2.086l-.10136-.2028"/><path class="cls-4" d="M25.71289,25.50975q.28881-.47737.57816-.95481l.10069.18156c-.17931.08289-.50634.8113-.67885.77325"/><path class="cls-4" d="M26.30429,25.799a3.04026,3.04026,0,0,1,.33639.91429c-.00683.17045-.07056.14455-.14127.28915l-.02682-.60183c-.05806-.27344-.25118-.43584-.1683-.60161"/><path class="cls-4" d="M31.35638,25.18587c-.03943,1.12192-.96475,1.09131-1.12848,1.75983,1.96815-.86271,1.15186-2.42024,1.12848-1.75983"/><path class="cls-4" d="M27.30687,22.54687a1.72229,1.72229,0,0,0,.55838-.67979c-.13755.0081-.40245.38649-.55838.67979"/><path class="cls-4" d="M27.96123,27.91877q.33718-.36459.6739-.72936c.08633.00157.17236.08153.1985.22615a1.25375,1.25375,0,0,0-.58611.50321c-.14167.05992-.19075,0-.28629,0"/><path class="cls-4" d="M28.99058,27.55859l.18022.00468.85388.83094-.00921.29082-.10631-.00921c-.35385-.77556-.78157-.794-.90927-.94179Z"/><path class="cls-4" d="M31.78841,26.89587c.48155.10592.541.4546.8485.85485-.289-.22012-.66-.67892-.86727-.66l.01877-.19484"/><path class="cls-4" d="M33.18374,25.6012c-.12571.09639-.25132.08582-.43378.36442.17994-.06913.32073.021.43378-.36442"/><path class="cls-4" d="M31.90142,25.90665c.02929.01462.05252-.00587.08177.00875l.08812.04394a.3259.3259,0,0,1,.09414.29551q-.1068.00607-.21359.01263c.07954-.198-.022-.16313-.05044-.36083"/><path class="cls-4" d="M26.74738,28.74946c.18338.08743.382-.20047.39581-.26221-.294-.0565-.33833.15161-.39581.26221"/><path class="cls-4" d="M29.45773,21.87763c.17163.01916.04219.33455.08986.48068-.149.03288-.18332.31832-.18332-.287.157.05046.08312-.05473.09346-.19373"/><path class="cls-4" d="M28.16037,22.34369c-.02367.02049.23289-.0453.27256.17973.00311.08631.00136-.00674.00136.10973-.43722.02384-.07454-.075-.24061-.16177-.0288-.08557-.03826-.0894-.03331-.12769"/><path class="cls-4" d="M28.42508,21.41771c.06639-.08223.4022.58517.33935.54487-.1827-.11735-.26728-.42432-.33935-.54487"/><path class="cls-4" d="M28.76292,20.85441a.04637.04637,0,1,1-.05276.04593.04975.04975,0,0,1,.05276-.04593"/><path class="cls-4" d="M28.42973,20.39c.09666-.03138.20384.10449.196.26374-.09186.055-.14439-.16218-.196-.26374"/><path class="cls-4" d="M7.21371,70.4847c-.45662-3.54313,4.77991-1.6815,6.41342-.57642-2.73833-2.93045-.68457-4.13169-.54058-3.603.08914.594-1.77382,1.12868,1.72939,4.53979-4.42746-2.2648-6.68074-2.73452-7.60223-.36035"/><path class="cls-4" d="M18.92351,66.66537a7.32848,7.32848,0,0,1,1.8177.57848c1.94619,1.06,3.86657,1.14155,4.98337.00923a4.24676,4.24676,0,0,1-3.13185.46827c-.63534-.214-3.05973-1.62515-3.66922-1.056"/><path class="cls-4" d="M30.58626,66.77488a4.39436,4.39436,0,0,0,4.21.619c1.2556-.39127,3.24626-1.70444,3.67243-.842-.69282-.19618-1.92965.31348-3.43274,1.01267-.8016.37282-3.76831.659-4.44968-.78969"/><path class="cls-4" d="M29.02307,65.62166c1.30459,3.70909,1.68056,5.52789,5.65518,7.645-1.47055.05549-5.01392-2.04517-5.65518-7.645"/><path class="cls-4" d="M27.9783,65.85361c-.91921,2.32361-2.62023,5.51691-4.77622,6.93212,2.83581-.58587,4.7848-5.75817,4.77622-6.93212"/><path class="cls-4" d="M43.7491,66.289c1.68579.4507.0775,2.866-.33159,3.23789,4.31979-2.37295,5.72443-.42733,5.76886.851-1.11995-1.60242-2.01874-2.30971-7.03969,0,2.57862-2.10335,1.8973-3.831,1.60242-4.08886"/><path class="cls-4" d="M43.625,19.36126c.839-2.334,1.96709-6.20213-.309-13.70344,3.10683,7.25578,1.13591,13.24932.309,13.70344"/><path class="cls-4" d="M51.707,13.91211c-1.72425,6.77219-4.91483,7.78539-7.33214,10.2383,1.564-.69308,7.23417-4.69254,7.33214-10.2383"/><path class="cls-4" d="M43.73489,26.73664s-.07159-.13963.04122-.13422c3.69881.17729,5.4703-.78722,8.59425-2.4676.19593-.10537.22164-.05044.24308.01559-5.03919,3.5818-8.47872,2.65743-8.87855,2.58623"/><path class="cls-4" d="M44.50482,29.32023c1.04511.3104,4.54527,2.37878,8.75885.79622-1.90753,1.858-8.145.26531-8.75885-.79622"/><path class="cls-4" d="M47.242,33.23522a6.265,6.265,0,0,0,4.36276,2.953,11.37884,11.37884,0,0,1-4.36276-2.953"/><path class="cls-4" d="M44.63751,31.70892c1.48753,2.964,3.00818,7.86877,7.548,10.08628-1.6533-.06086-5.79515-3.14087-7.548-10.08628"/><path class="cls-4" d="M46.44732,41.9837a47.46475,47.46475,0,0,0,5.05786,7.57975c-2.73266-2.32879-4.909-5.69778-5.05786-7.57975"/><path class="cls-4" d="M14.31659,3.50733C12.40848,5.29061,10.493,13.90105,12.65651,20.15954c-3.55482-5.58052-.202-16.39363,1.66008-16.65221"/><path class="cls-4" d="M4.96978,13.39108c1.686,6.80849,5.99856,9.28618,7.90769,11.37244C5.687,20.55364,4.8675,14.6113,4.96978,13.39108"/><path class="cls-4" d="M3.34918,23.50622c3.7474,3.4881,7.38932,3.39554,8.69012,3.21333a23.0004,23.0004,0,0,1-8.69012-3.21333"/><path class="cls-4" d="M2.93024,29.90492c2.85928,1.9561,8.066,1.006,9.58416-.83832-5.93322,2.87818-7.698.98612-9.58416.83832"/><path class="cls-4" d="M4.9419,36.08027C6.91728,35.626,9.83282,33.87,10.195,32.02854c-1.8441,2.15158-1.94,2.08552-5.25312,4.05173"/><path class="cls-4" d="M11.92756,31.83306c-.122.0653-.44813.16281-.53689.49734A15.27473,15.27473,0,0,1,4.6346,41.52894c1.42516.00922,5.8679-3.27866,7.293-9.69588"/><path class="cls-4" d="M11.3816,39.60851c-.04908-.07207-.13492-.03448-.26713.38C9.893,43.81545,7.638,46.41861,5.61264,49.04536c.79738-.76624,5.18382-4.74116,5.769-9.43685"/><path class="cls-2" d="M16.25211,43.41448,28.48943,31.20261l12.2207,12.16482-4.0952,7.4542c-2.05468.04578-6.0746.02592-5.95723.0248-1.47385.01581-2.86224-.00271-4.336.01288l-2.96384.00429-2.81481-.00184Z"/><polygon class="cls-5" points="16.81 43.611 25.702 34.534 25.688 46.084 18.248 46.084 16.81 43.611"/><polygon class="cls-5" points="40.06 43.616 31.167 34.538 31.181 46.102 38.697 46.102 40.06 43.616"/><polygon class="cls-6" points="25.986 34.276 28.46 31.887 30.892 34.259 30.881 46.36 38.559 46.348 36.298 50.476 20.803 50.484 18.405 46.361 25.984 46.362 25.986 34.276"/><path class="cls-5" d="M27.70515,48.22778l.00243.60207c-.17116,0-.41375.00422-.58491.00422a1.62151,1.62151,0,0,1-1.50935,1.41972,2.34352,2.34352,0,0,0,.40245-1.43005h-.65251a2.59635,2.59635,0,0,1-1.70757,1.27733c-1.86184.25452-2.36507-1.26358-2.957-.56917-.18177.16847-.51293-.14392-.20816-.37482.16621-.14684.38475-.34011-.08327-.31935-.26248.06325-.60392-.34868-.139-.48591.136-.03808.71828-.034.10379-.31285-.31491-.29844.13318-.646.40991-.4507.70548.4856.85083-.95394,2.94334-.74964a2.37329,2.37329,0,0,1,1.59655,1.3882h.69393a3.84014,3.84014,0,0,0-.68016-1.31884c1.28655-.37951,1.67057.92081,1.77712,1.31884Z"/><path class="cls-5" d="M29.35777,48.24463l-.00248.60207c.17116,0,.41375.0043.585.0043a1.62132,1.62132,0,0,0,1.50935,1.41972,2.34371,2.34371,0,0,1-.4025-1.43h.65256A2.59686,2.59686,0,0,0,33.40723,50.118c1.86184.25452,2.36507-1.26358,2.957-.56917.18207.16844.51293-.144.20835-.37483-.1664-.14685-.38465-.3401.08313-.31944.26272.06334.60392-.34866.139-.48582-.136-.03807-.71813-.034-.10379-.3126.31481-.29871-.13318-.64626-.41-.45095-.70553.4856-.85078-.95393-2.9431-.74963a2.37289,2.37289,0,0,0-1.59674,1.3882h-.694a3.84034,3.84034,0,0,1,.6802-1.31885c-1.28654-.3795-1.67061.92081-1.77692,1.31885Z"/><path class="cls-5" d="M28.79464,43.65976l-.60207.00565c-.00087-.17122-.00087-1.2314-.00175-1.40265A1.62148,1.62148,0,0,1,26.763,40.7611a2.34322,2.34322,0,0,0,1.432.39483q-.00166-.32631-.00329-.65253a2.59576,2.59576,0,0,1-1.2864-1.70064c-.26447-1.86051,1.2508-2.372.55318-2.96008-.16941-.18117.14118-.51381.37369-.21018.14773.16551.34216.38269.319-.08519-.0647-.26214.34527-.60566.48509-.14144.0388.13579.03793.71786.31336.10228.29691-.31665.64693.12952.453.40723-.48174.70816.9584.8458.76537,2.93921a2.37294,2.37294,0,0,1-1.37961,1.604q.00166.347.00359.69418a3.84487,3.84487,0,0,0,1.31549-.68741c.38625,1.28458-.91208,1.67561-1.30938,1.78415Z"/><path class="cls-2" d="M24.97541,50.61264a7.79678,7.79678,0,0,0-4.7626,5.53968c-.03943.01976,3.77486-.01846,3.77486-.01846.724-2.40719,2.01054-3.76248,4.71031-5.28069h.20836c-.10559.35885,4.21256,1.74436,4.7,5.3039,1.27762.01327,2.58468.01438,3.8623.02767-.57283-2.35445-1.4301-3.70434-4.84839-5.70319-2.621.04481-5.02386.08606-7.64482.13109"/><path class="cls-5" d="M37.15056,55.93831,33.85633,55.921c-.75091-3.24037-3.43225-4.18324-4.53712-5.06783,1.11408.04579,2.26395-.00269,3.27168-.00133a7.74757,7.74757,0,0,1,4.55967,5.08647"/><path class="cls-5" d="M20.50536,55.89127l3.2433-.01717a8.537,8.537,0,0,1,4.36825-5.02156c-1.11408.04841-1.90947.007-2.96831.00852a7.50965,7.50965,0,0,0-4.64324,5.03021"/></g></g></svg>